
<svg version="1.1" id="logo" xmlns="http://www.w3.org/2000/svg" xmlns:xlink="http://www.w3.org/1999/xlink" x="0px" y="0px"
	  viewBox="0 0 352 272" style="enable-background:new 0 0 352 272;" xml:space="preserve">

<defs>
	<style type="text/css">

		.st0{fill:#fff;;stroke:#000000;stroke-width:5;stroke-miterlimit:5;}

		.st0 {
			stroke-dasharray: 2000;
			stroke-dashoffset:0;
			-webkit-animation: dash 4s linear forwards;
			-o-animation: dash 4s linear forwards;
			-moz-animation: dash 4s linear forwards;
			animation: dash 4s linear forwards;
		}

		#logo {
		cursor:pointer;
		}

		#logo:hover .st0 {
			fill:#000;
			transition: .8s;
		}

		#logo.clickit .st0 {
			fill:#1b75bb;
			stroke: #1b75bb;
		}

		@-webkit-keyframes dash {
			from {
				stroke-dashoffset: 2000;
			}
			to {
				stroke-dashoffset: 0;
			}
		}

	</style>

	<script type="text/javascript">

		var clicker = document.querySelector('#logo');

		clicker.addEventListener('click', function() {

			this.classList.toggle('clickit');

		});

	</script>

</defs>


<path d="M3.6,8.2C2.2,8.8,0.9,8.7,0.4,8.1C0.1,7.7,0.1,7.2,0.1,7c0-2,1.5-3.8,5.2-3.8c0.7,0,2.5,0.4,4,0.4c0.7,0,1.4-0.1,1.8-0.4
		c-0.4,0.7-0.6,1.1-1.3,4.6c0.6-0.5,1.4-0.9,2.1-0.9c0.8,0,1.7,0.9,1.7,1.8c0,0.1,0,0.2,0,0.4l-0.6,2.8c0,0.2-0.1,0.3-0.1,0.5
		c0,0.1,0,0.2,0.1,0.3c0.2,0.2,0.5,0.2,0.6,0.2c0.8,0,2.3-1.1,2.4-1.3c-0.7,0.7-2.3,2.6-3.5,2.6s-1.8-0.5-1.8-1.6
		c0-0.2,0-0.5,0.1-0.8c0.3-1.5,0.4-2.2,0.4-2.3c0,0,0.1-0.3,0.1-0.7c0-0.2,0-0.3-0.1-0.5c0-0.1-0.1-0.2-0.2-0.3
		C10.9,8,10.7,8,10.6,8c-0.2,0-0.4,0.1-0.5,0.2c-0.1,0-0.2,0.1-0.4,0.4c-0.2,0.3-0.2,0.5-0.3,1c0,0.2-0.1,0.4-0.2,0.6
		C9.2,10.8,8.9,12,8.5,14H6.4c1.4-5,2-8.7,1.5-9.1C7.7,4.8,7.5,4.7,7.5,4.7c-0.4-0.2-0.8-0.2-1-0.2L4.4,14H2.3l2.1-9.7
		C4,4.4,3,4.5,2.2,5.2C2,5.4,1.7,5.7,1.5,6.1c0,0.1-0.3,1,0.2,1.6C2.2,8.2,2.9,8.4,3.6,8.2z"/>
</svg>
