
<svg version="1.1" id="logo" xmlns="http://www.w3.org/2000/svg" xmlns:xlink="http://www.w3.org/1999/xlink" x="0px" y="0px"
	  viewBox="0 0 352 272" style="enable-background:new 0 0 352 272;" xml:space="preserve">

<defs>
	<style type="text/css">

		.st0{fill:#fff;;stroke:#000000;stroke-width:5;stroke-miterlimit:5;}

		.st0 {
			stroke-dasharray: 2000;
			stroke-dashoffset:0;
			-webkit-animation: dash 4s linear forwards;
			-o-animation: dash 4s linear forwards;
			-moz-animation: dash 4s linear forwards;
			animation: dash 4s linear forwards;
		}

		#logo {
		cursor:pointer;
		fill:#fff;
		transition: .8s;
		}

		#logo:hover .st0 {
			fill:#000;
			transition: .8s;
		}

		#logo.clickit .st0 {
			fill:#1b75bb;
			stroke: #1b75bb;
		}

		@-webkit-keyframes dash {
			from {
				stroke-dashoffset: 2000;
			}
			to {
				stroke-dashoffset: 0;
			}
		}

	</style>

	<script type="text/javascript">

		var clicker = document.querySelector('#logo');

		clicker.addEventListener('click', function() {

			this.classList.toggle('clickit');

		});

	</script>

</defs>


<path class="st0" d="M60.978,92.233c0.649-0.067,0.868,0.842,0.255,1.064c-19.031,6.876-36.497,4.883-43.616-4.346
		c-4.24-5.496-5.077-13.638-5.077-16.178c0-30.632,24.18-59.887,81.082-59.887c10.593,0,38.692,5.986,62.183,5.986
		c10.349,0,19.722-1.156,26.177-4.539c0.488-0.256,1.005,0.267,0.741,0.751c-5.14,9.425-8.577,18.017-18.564,68.225
		c-0.1,0.501,0.467,0.863,0.875,0.556c9.865-7.441,21.149-13.626,31.782-13.626c12.431,0,26.484,13.364,26.484,28.795
		c0,1.845,0,3.682-0.459,5.519l-9.445,43.997c-0.689,2.771-1.148,5.312-1.148,7.379c0,2.049,0.413,3.835,1.499,5.236
		c2.51,3.238,7.625,3.305,10.013,3.291c9.563-0.055,24.089-9.651,32.3-15.693c0.546-0.402,1.198,0.335,0.731,0.826
		c-12.418,13.068-33.89,35.825-49.381,35.825c-17.972,0-28.566-7.838-28.566-25.106c0-3.689,0.459-7.379,1.378-11.757
		c4.77-22.736,6.47-34.24,6.967-35.841c0,0,1.304-4.204,1.73-10.727c0.196-2.995,0.109-5.416-1.038-7.959
		c-0.487-1.08-1.283-2.832-3.114-4.153c-2.648-1.909-5.756-1.576-7.959-1.384c-3.303,0.287-5.806,1.527-7.267,2.422
		c-0.799,0.49-3.26,2.159-5.537,5.883c-2.705,4.424-2.707,7.782-4.153,15.918c-0.681,3.831-1.684,7.643-2.422,11.463
		c-1.827,9.458-6.051,29.142-12.357,60.877c-0.052,0.26-0.28,0.451-0.545,0.451h-31.984c-0.366,0-0.63-0.351-0.533-0.704
		c21.296-77.658,31.48-137.558,23.965-143.053c-3.206-2.345-6.82-4.746-7.243-5.026c-0.03-0.02-0.058-0.035-0.091-0.049
		c-5.893-2.58-11.367-2.056-15.233-2.07c-0.262-0.001-0.483,0.179-0.538,0.436L80.581,185.062c-0.055,0.256-0.281,0.438-0.542,0.438
		H48.008c-0.353,0-0.617-0.326-0.542-0.671L80.108,33.2c0.076-0.352-0.195-0.683-0.555-0.672
		c-7.316,0.233-22.404,1.873-34.576,12.711c-3,2.672-7.407,6.682-9.704,13.497c-0.61,1.81-4.765,14.834,3.46,24.91
		C43.909,89.985,52.333,93.129,60.978,92.233z"/>
</svg>
