
<svg version="1.1" id="logo" xmlns="http://www.w3.org/2000/svg" xmlns:xlink="http://www.w3.org/1999/xlink" x="0px" y="0px"
	  viewBox="0 0 352 272" style="enable-background:new 0 0 352 272;" xml:space="preserve">

<defs>
	<style type="text/css">

		.st0{fill:#fff;;stroke:#000000;stroke-width:5;stroke-miterlimit:5;}

		.st0 {
			stroke-dasharray: 2000;
			stroke-dashoffset:0;
			-webkit-animation: dash 4s linear forwards;
			-o-animation: dash 4s linear forwards;
			-moz-animation: dash 4s linear forwards;
			animation: dash 4s linear forwards;
		}

		#logo {
		cursor:pointer;
		}

		#logo:hover .st0 {
			fill:#000;
			transition: .8s;
		}

		#logo.clickit .st0 {
			fill:#1b75bb;
			stroke: #1b75bb;
		}

		@-webkit-keyframes dash {
			from {
				stroke-dashoffset: 2000;
			}
			to {
				stroke-dashoffset: 0;
			}
		}

	</style>

	<script type="text/javascript">

		var clicker = document.querySelector('#logo');

		clicker.addEventListener('click', function() {

			this.classList.toggle('clickit');

		});

	</script>

</defs>


<path id="st0" class="st0" d="M182.522,262.591c-68.339,30.895-134.064,26.447-159.327-6.299
		c-13.649-17.692-16.344-43.901-16.344-52.08c0-98.61,77.839-192.785,261.014-192.785c34.102,0,124.557,19.269,200.177,19.269
		c36.369,0,68.993-4.435,89.74-17.79c-18.529,33.363-28.928,54.135-63.769,229.869c32.624-25.207,70.471-46.718,106.052-46.718
		c40.016,0,85.255,43.022,85.255,92.697c0,5.938,0,11.852-1.478,17.766l-30.406,141.632c-2.218,8.92-3.696,17.1-3.696,23.753
		c0,6.596,1.329,12.345,4.826,16.855c8.081,10.423,24.545,10.639,32.233,10.595c42.127-0.244,114.165-57.996,123.103-65.247
		C775.8,468.208,692.023,566.819,634.167,566.819c-57.855,0-91.957-25.232-91.957-80.82c0-11.877,1.478-23.753,4.435-37.847
		c15.355-73.19,20.829-110.225,22.427-115.379c0,0,4.197-13.533,5.57-34.533c0.63-9.64,0.351-17.434-3.342-25.621
		c-1.568-3.476-4.13-9.117-10.026-13.368c-8.524-6.145-18.53-5.073-25.622-4.456c-10.632,0.925-18.691,4.916-23.394,7.798
		c-2.572,1.576-10.493,6.95-17.824,18.938c-8.709,14.242-8.714,25.05-13.368,51.243c-2.191,12.333-5.422,24.251-7.798,36.55
		c-5.91,30.592-19.609,96.074-40.069,197.074H326.435c68.977-252,102.033-444.679,77.768-462.424
		c-10.98-8.03-23.447-16.091-23.447-16.091c-19.769-8.711-38.088-6.807-50.625-7.011L225.583,566.396H118.816l106.027-492.15
		c-22.576,0.494-73.084,5.105-113.569,41.157c-9.658,8.6-23.845,21.6-31.239,43.536c-1.965,5.828-15.339,47.798,11.14,80.233
		C111.774,264.403,148.364,273.953,182.522,262.591z"/>
</svg>
